<svg xmlns="http://www.w3.org/2000/svg" viewBox="0 0 377.13 137.35"><title>2KD_1</title><g id="a3ec7923-9c7a-40a3-ab59-631b51c30217" data-name="Calque 2"><g id="08be6655-9e81-46e4-a594-e0cad5b31093" data-name="Calque 1"><path d="M0,137.35,62.86,60Q70,51.22,70,43.26a15.87,15.87,0,0,0-4.55-11.35,14.71,14.71,0,0,0-11-4.75,16.18,16.18,0,0,0-7.17,1.94,16.81,16.81,0,0,0-6.79,7,21.76,21.76,0,0,0-2.91,11.06H7.76A47,47,0,0,1,21.44,13.87,47.45,47.45,0,0,1,36.57,3.69,45.19,45.19,0,0,1,54.51,0,45.75,45.75,0,0,1,72,3.4a47,47,0,0,1,14.65,9.31,42,42,0,0,1,9.8,13.87,41,41,0,0,1,3.49,16.68,49.27,49.27,0,0,1-2,14.07q-2,6.89-8.44,14.64L57.81,110.19h46v27.16Z" style="fill:#00649d"/><path d="M123.77,137.35V2.13h29.88V62.86L202,2.13H238L183.72,68.48l56.45,68.87H203.7l-50-61.69v61.69Z" style="fill:#00649d"/><path d="M254.14,137.35V2.13h51.21A87.61,87.61,0,0,1,336,7.18a62.09,62.09,0,0,1,22.7,14.16A59.64,59.64,0,0,1,372.48,43,77.06,77.06,0,0,1,377.13,70q0,20.76-8.73,36.18a56,56,0,0,1-25,23.29q-16.31,7.84-37.83,7.85ZM284,110.19h19.6q21,0,32.2-9.5T347.06,70q0-21.53-11.25-31.13t-32.4-9.61H284Z" style="fill:#00649d"/></g></g></svg>